<svg width="34" height="34" viewBox="0 0 34 34" fill="none" xmlns="http://www.w3.org/2000/svg">
<g clip-path="url(#clip0_3_328)">
<path d="M5.66667 11.3333C6.44907 11.3333 7.08333 10.6991 7.08333 9.91667C7.08333 9.13426 6.44907 8.5 5.66667 8.5C4.88426 8.5 4.25 9.13426 4.25 9.91667C4.25 10.6991 4.88426 11.3333 5.66667 11.3333Z" fill="#C6C6C6"/>
<path d="M5.66667 18.4167C6.44907 18.4167 7.08333 17.7824 7.08333 17C7.08333 16.2176 6.44907 15.5833 5.66667 15.5833C4.88426 15.5833 4.25 16.2176 4.25 17C4.25 17.7824 4.88426 18.4167 5.66667 18.4167Z" fill="#C6C6C6"/>
<path d="M5.66667 25.5C6.44907 25.5 7.08333 24.8657 7.08333 24.0833C7.08333 23.3009 6.44907 22.6667 5.66667 22.6667C4.88426 22.6667 4.25 23.3009 4.25 24.0833C4.25 24.8657 4.88426 25.5 5.66667 25.5Z" fill="#C6C6C6"/>
<path d="M28.4184 15.5833H11.2484C10.5129 15.5833 9.91669 16.1796 9.91669 16.915V17.085C9.91669 17.8205 10.5129 18.4167 11.2484 18.4167H28.4184C29.1538 18.4167 29.75 17.8205 29.75 17.085V16.915C29.75 16.1796 29.1538 15.5833 28.4184 15.5833Z" fill="#C6C6C6"/>
<path d="M28.4184 22.6667H11.2484C10.5129 22.6667 9.91669 23.2629 9.91669 23.9983V24.1683C9.91669 24.9038 10.5129 25.5 11.2484 25.5H28.4184C29.1538 25.5 29.75 24.9038 29.75 24.1683V23.9983C29.75 23.2629 29.1538 22.6667 28.4184 22.6667Z" fill="#C6C6C6"/>
<path d="M28.4184 8.5H11.2484C10.5129 8.5 9.91669 9.09621 9.91669 9.83167V10.0017C9.91669 10.7371 10.5129 11.3333 11.2484 11.3333H28.4184C29.1538 11.3333 29.75 10.7371 29.75 10.0017V9.83167C29.75 9.09621 29.1538 8.5 28.4184 8.5Z" fill="#C6C6C6"/>
</g>
<defs>
<clipPath id="clip0_3_328">
<rect width="34" height="34" fill="white"/>
</clipPath>
</defs>
</svg>
