<svg width="26" height="26" viewBox="0 0 26 26" fill="none" xmlns="http://www.w3.org/2000/svg">
<path d="M23.5625 7.3125V18.6875C23.5625 19.334 23.3057 19.954 22.8486 20.4111C22.3915 20.8682 21.7715 21.125 21.125 21.125H4.875C4.22853 21.125 3.60855 20.8682 3.15143 20.4111C2.69431 19.954 2.4375 19.334 2.4375 18.6875V7.3125M23.5625 7.3125C23.5625 6.66603 23.3057 6.04605 22.8486 5.58893C22.3915 5.13181 21.7715 4.875 21.125 4.875H4.875C4.22853 4.875 3.60855 5.13181 3.15143 5.58893C2.69431 6.04605 2.4375 6.66603 2.4375 7.3125M23.5625 7.3125V7.57575C23.5625 7.99191 23.456 8.40115 23.2531 8.76449C23.0502 9.12783 22.7577 9.43317 22.4033 9.65142L14.2783 14.651C13.894 14.8877 13.4514 15.0131 13 15.0131C12.5486 15.0131 12.106 14.8877 11.7217 14.651L3.59667 9.6525C3.24233 9.43425 2.94978 9.12891 2.74687 8.76557C2.54396 8.40223 2.43745 7.99299 2.4375 7.57683V7.3125" stroke="white" stroke-width="3" stroke-linecap="round" stroke-linejoin="round"/>
</svg>
