<svg width="26" height="26" viewBox="0 0 26 26" fill="none" xmlns="http://www.w3.org/2000/svg">
<g clip-path="url(#clip0_3_1272)">
<path d="M22.75 6.5H17.3333V4.69084C17.3079 3.99731 17.0085 3.34215 16.5008 2.86899C15.9931 2.39582 15.3186 2.14326 14.625 2.16667H11.375C10.6814 2.14326 10.0068 2.39582 9.49909 2.86899C8.99141 3.34215 8.69204 3.99731 8.66663 4.69084V6.5H3.24996C2.96264 6.5 2.68709 6.61414 2.48393 6.8173C2.28076 7.02047 2.16663 7.29602 2.16663 7.58334C2.16663 7.87065 2.28076 8.1462 2.48393 8.34937C2.68709 8.55253 2.96264 8.66667 3.24996 8.66667H4.33329V20.5833C4.33329 21.4453 4.6757 22.2719 5.2852 22.8814C5.89469 23.4909 6.72134 23.8333 7.58329 23.8333H18.4166C19.2786 23.8333 20.1052 23.4909 20.7147 22.8814C21.3242 22.2719 21.6666 21.4453 21.6666 20.5833V8.66667H22.75C23.0373 8.66667 23.3128 8.55253 23.516 8.34937C23.7192 8.1462 23.8333 7.87065 23.8333 7.58334C23.8333 7.29602 23.7192 7.02047 23.516 6.8173C23.3128 6.61414 23.0373 6.5 22.75 6.5ZM10.8333 17.3333C10.8333 17.6207 10.7192 17.8962 10.516 18.0994C10.3128 18.3025 10.0373 18.4167 9.74996 18.4167C9.46264 18.4167 9.18709 18.3025 8.98393 18.0994C8.78076 17.8962 8.66663 17.6207 8.66663 17.3333V13C8.66663 12.7127 8.78076 12.4371 8.98393 12.234C9.18709 12.0308 9.46264 11.9167 9.74996 11.9167C10.0373 11.9167 10.3128 12.0308 10.516 12.234C10.7192 12.4371 10.8333 12.7127 10.8333 13V17.3333ZM10.8333 4.69084C10.8333 4.5175 11.0608 4.33334 11.375 4.33334H14.625C14.9391 4.33334 15.1666 4.5175 15.1666 4.69084V6.5H10.8333V4.69084ZM17.3333 17.3333C17.3333 17.6207 17.2192 17.8962 17.016 18.0994C16.8128 18.3025 16.5373 18.4167 16.25 18.4167C15.9626 18.4167 15.6871 18.3025 15.4839 18.0994C15.2808 17.8962 15.1666 17.6207 15.1666 17.3333V13C15.1666 12.7127 15.2808 12.4371 15.4839 12.234C15.6871 12.0308 15.9626 11.9167 16.25 11.9167C16.5373 11.9167 16.8128 12.0308 17.016 12.234C17.2192 12.4371 17.3333 12.7127 17.3333 13V17.3333Z" fill="white"/>
</g>
<defs>
<clipPath id="clip0_3_1272">
<rect width="26" height="26" fill="white"/>
</clipPath>
</defs>
</svg>
